<svg width="45" height="45" viewBox="0 0 45 45" fill="none" xmlns="http://www.w3.org/2000/svg">
<path d="M31.5 0C30.2574 0 29.25 1.00736 29.25 2.25C29.25 3.49264 30.2574 4.5 31.5 4.5H37.318L17.534 24.284C16.6553 25.1627 16.6553 26.5873 17.534 27.466C18.4127 28.3447 19.8373 28.3447 20.716 27.466L40.5 7.68198V13.5C40.5 14.7426 41.5074 15.75 42.75 15.75C43.9926 15.75 45 14.7426 45 13.5V2.25C45 1.00736 43.9926 0 42.75 0H31.5ZM4.5 6.75C4.5 5.50736 5.50736 4.5 6.75 4.5H18C19.2426 4.5 20.25 3.49264 20.25 2.25C20.25 1.00736 19.2426 0 18 0H6.75C3.02208 0 0 3.02208 0 6.75V38.25C0 41.9779 3.02208 45 6.75 45H38.25C41.9779 45 45 41.9779 45 38.25V26.85C45 25.6074 43.9926 24.6 42.75 24.6C41.5074 24.6 40.5 25.6074 40.5 26.85V38.25C40.5 39.4926 39.4926 40.5 38.25 40.5H6.75C5.50736 40.5 4.5 39.4926 4.5 38.25V6.75Z" fill="#013C01"/>
</svg>
