<svg width="33.000000" height="33.000000" viewBox="0 0 33 33" fill="none" xmlns="http://www.w3.org/2000/svg" xmlns:xlink="http://www.w3.org/1999/xlink">
	<desc>
			Created with Pixso.
	</desc>
	<defs/>
	<path id="icon" d="M23.1 0C22.18 0 21.45 0.73 21.45 1.64C21.45 2.56 22.18 3.29 23.1 3.29L27.36 3.29L12.85 17.8C12.21 18.45 12.21 19.49 12.85 20.14C13.5 20.78 14.54 20.78 15.19 20.14L29.7 5.63L29.7 9.89C29.7 10.81 30.43 11.54 31.35 11.54C32.26 11.54 33 10.81 33 9.89L33 1.64C33 0.73 32.26 0 31.35 0L23.1 0ZM3.29 4.95C3.29 4.03 4.03 3.29 4.95 3.29L13.2 3.29C14.11 3.29 14.85 2.56 14.85 1.64C14.85 0.73 14.11 0 13.2 0L4.95 0C2.21 0 0 2.21 0 4.95L0 28.04C0 30.78 2.21 33 4.95 33L28.05 33C30.78 33 33 30.78 33 28.04L33 19.68C33 18.77 32.26 18.04 31.35 18.04C30.43 18.04 29.7 18.77 29.7 19.68L29.7 28.04C29.7 28.96 28.96 29.7 28.05 29.7L4.95 29.7C4.03 29.7 3.29 28.96 3.29 28.04L3.29 4.95Z" fill="#FFFFFF" fill-opacity="1.000000" fill-rule="nonzero"/>
</svg>
