<svg width="46" height="46" viewBox="0 0 46 46" fill="none" xmlns="http://www.w3.org/2000/svg">
<path d="M3 16.5H43.5M12 3V7.5M34.5 3V7.5M9.75 23.25H14.25M21 23.25H25.5M32.25 23.25H36.75M9.75 30H14.25M21 30H25.5M32.25 30H36.75M9.75 36.75H14.25M21 36.75H25.5M32.25 36.75H36.75M10.2 43.5H36.3C38.8202 43.5 40.0805 43.5 41.043 43.0095C41.8897 42.5782 42.5782 41.8897 43.0095 41.043C43.5 40.0805 43.5 38.8202 43.5 36.3V14.7C43.5 12.1798 43.5 10.9196 43.0095 9.95705C42.5782 9.1103 41.8897 8.42189 41.043 7.99048C40.0805 7.5 38.8202 7.5 36.3 7.5H10.2C7.67977 7.5 6.41964 7.5 5.45705 7.99048C4.6103 8.42189 3.92189 9.1103 3.49048 9.95705C3 10.9196 3 12.1798 3 14.7V36.3C3 38.8202 3 40.0805 3.49048 41.043C3.92189 41.8897 4.6103 42.5782 5.45705 43.0095C6.41964 43.5 7.67975 43.5 10.2 43.5Z" stroke="#013C01" stroke-width="4.5" stroke-linecap="round"/>
</svg>
