<svg width="47" height="47" viewBox="0 0 47 47" fill="none" xmlns="http://www.w3.org/2000/svg">
<path fill-rule="evenodd" clip-rule="evenodd" d="M23.5002 0.583496C10.8437 0.583496 0.583496 10.8435 0.583496 23.5002C0.583496 36.1566 10.8437 46.4168 23.5002 46.4168C36.1568 46.4168 46.4168 36.1566 46.4168 23.5002C46.4168 10.8435 36.1568 0.583496 23.5002 0.583496ZM23.5002 41.8335C13.3912 41.8335 5.16683 33.6091 5.16683 23.5002C5.16683 13.3912 13.3912 5.16683 23.5002 5.16683C33.6093 5.16683 41.8335 13.3912 41.8335 23.5002C41.8335 33.6091 33.6093 41.8335 23.5002 41.8335ZM26.3698 14.3335C26.3698 15.995 25.16 17.1981 23.5234 17.1981C21.8207 17.1981 20.6406 15.995 20.6406 14.3017C20.6406 12.6742 21.8526 11.4689 23.5234 11.4689C25.16 11.4689 26.3698 12.6742 26.3698 14.3335ZM21.2135 21.2085H25.7968V34.9585H21.2135V21.2085Z" fill="#013C01"/>
</svg>
